<svg width="50" height="50" viewBox="0 0 50 50" fill="none" xmlns="http://www.w3.org/2000/svg">
<g filter="url(#filter0_d_54964_7718)">
<rect x="24.8284" width="35.1127" height="35.1127" rx="7" transform="rotate(45 24.8284 0)" fill="#DFFD53"/>
<rect x="24.8284" width="35.1127" height="35.1127" rx="7" transform="rotate(45 24.8284 0)" fill="url(#paint0_linear_54964_7718)" style="mix-blend-mode:soft-light"/>
<rect x="24.8284" y="0.212132" width="34.8127" height="34.8127" rx="6.85" transform="rotate(45 24.8284 0.212132)" stroke="#E5E5E5" stroke-width="0.3"/>
<path d="M30.3284 25.5156H19.3284C18.9526 25.5156 18.6409 25.204 18.6409 24.8281C18.6409 24.4523 18.9526 24.1406 19.3284 24.1406H30.3284C30.7043 24.1406 31.0159 24.4523 31.0159 24.8281C31.0159 25.204 30.7043 25.5156 30.3284 25.5156Z" fill="#111111"/>
<path d="M24.8284 31.0156C24.4526 31.0156 24.1409 30.704 24.1409 30.3281V19.3281C24.1409 18.9523 24.4526 18.6406 24.8284 18.6406C25.2043 18.6406 25.5159 18.9523 25.5159 19.3281V30.3281C25.5159 30.704 25.2043 31.0156 24.8284 31.0156Z" fill="#111111"/>
</g>
<defs>
<filter id="filter0_d_54964_7718" x="-1.9997" y="-1" width="53.6562" height="53.6572" filterUnits="userSpaceOnUse" color-interpolation-filters="sRGB">
<feFlood flood-opacity="0" result="BackgroundImageFix"/>
<feColorMatrix in="SourceAlpha" type="matrix" values="0 0 0 0 0 0 0 0 0 0 0 0 0 0 0 0 0 0 127 0" result="hardAlpha"/>
<feOffset dy="1"/>
<feGaussianBlur stdDeviation="1"/>
<feColorMatrix type="matrix" values="0 0 0 0 0 0 0 0 0 0 0 0 0 0 0 0 0 0 0.05 0"/>
<feBlend mode="normal" in2="BackgroundImageFix" result="effect1_dropShadow_54964_7718"/>
<feBlend mode="normal" in="SourceGraphic" in2="effect1_dropShadow_54964_7718" result="shape"/>
</filter>
<linearGradient id="paint0_linear_54964_7718" x1="58.3683" y1="1.57281" x2="26.0326" y2="33.1695" gradientUnits="userSpaceOnUse">
<stop stop-color="white" stop-opacity="0.8"/>
<stop offset="0.309408" stop-color="white" stop-opacity="0"/>
<stop offset="0.723179" stop-color="white" stop-opacity="0"/>
<stop offset="0.980946" stop-color="white" stop-opacity="0.8"/>
</linearGradient>
</defs>
</svg>
